<?xml version="1.0" encoding="utf-8"?>
<!-- Generator: Adobe Illustrator 26.4.1, SVG Export Plug-In . SVG Version: 6.00 Build 0)  -->
<svg version="1.1" id="Layer_1" xmlns="http://www.w3.org/2000/svg" xmlns:xlink="http://www.w3.org/1999/xlink" x="0px" y="0px"
	 viewBox="0 0 35.8 30.5" style="enable-background:new 0 0 35.8 30.5;" xml:space="preserve">
<style type="text/css">
	.st0{fill:#FFFFFF;}
	.st1{fill:url(#SVGID_1_);}
	.st2{fill:#0099FF;}
</style>
<g>
	<g>
		<polygon class="st0" points="0.5,10.4 10.6,19.8 0.5,29.8 5.7,29.8 14.7,20.7 14.7,19.3 5.5,10.4 		"/>
		
			<linearGradient id="SVGID_1_" gradientUnits="userSpaceOnUse" x1="14.7" y1="16.9" x2="18.7" y2="16.9" gradientTransform="matrix(1 0 0 -1 0 32)">
			<stop  offset="0" style="stop-color:#FFFFFF"/>
			<stop  offset="1" style="stop-color:#0099FF"/>
		</linearGradient>
		<polygon class="st1" points="14.7,0.4 14.7,19.3 14.7,20.7 14.7,29.8 15,29.8 18.7,29.8 18.7,0.4 15,0.4 		"/>
		<path class="st2" d="M25.8,9.5c-1.6,0-3,0.4-4.3,1.1c-1.3,0.7-2.2,1.7-2.8,2.9v12.6c0.6,1.2,1.5,2.2,2.8,2.9
			c1.2,0.7,2.6,1.1,4.1,1.1c2.8,0,5.1-1,6.9-2.9c1.8-1.9,2.7-4.3,2.7-7.3c0-3.3-0.8-5.7-2.6-7.6C30.9,10.4,28.6,9.5,25.8,9.5z
			 M29.8,24.6c-1.2,1.3-2.7,1.9-4.6,1.9c-1.9,0-3.5-0.6-4.7-1.9c-0.9-0.9-1.5-2.1-1.7-3.4v-3.1c0.2-1.4,0.8-2.5,1.7-3.5
			c1.2-1.3,2.8-1.9,4.7-1.9c1.9,0,3.4,0.7,4.6,2s1.8,3,1.8,5S31,23.3,29.8,24.6z"/>
	</g>
</g>
</svg>
