<?xml version="1.0" encoding="utf-8"?>
<!-- Generator: Adobe Illustrator 26.4.1, SVG Export Plug-In . SVG Version: 6.00 Build 0)  -->
<svg version="1.1" id="Layer_1" xmlns="http://www.w3.org/2000/svg" xmlns:xlink="http://www.w3.org/1999/xlink" x="0px" y="0px"
	 viewBox="0 0 119.3 28" style="enable-background:new 0 0 119.3 28;" xml:space="preserve">
<style type="text/css">
	.st0{fill:#29ABE2;}
</style>
<g>
	<circle class="st0" cx="21.1" cy="1" r="0.4"/>
	<circle class="st0" cx="21.1" cy="2.1" r="0.4"/>
	<circle class="st0" cx="21.1" cy="3.3" r="0.4"/>
	<circle class="st0" cx="21.1" cy="4.5" r="0.4"/>
	<circle class="st0" cx="21.1" cy="5.7" r="0.4"/>
	<circle class="st0" cx="21.1" cy="6.9" r="0.4"/>
	<circle class="st0" cx="21.1" cy="8.1" r="0.4"/>
	<circle class="st0" cx="21.1" cy="9.2" r="0.4"/>
	<circle class="st0" cx="21.1" cy="10.4" r="0.4"/>
	<circle class="st0" cx="21.1" cy="11.6" r="0.4"/>
	<circle class="st0" cx="21.1" cy="12.8" r="0.4"/>
	<circle class="st0" cx="21.1" cy="14" r="0.4"/>
	<circle class="st0" cx="21.1" cy="15.2" r="0.4"/>
	<circle class="st0" cx="21.1" cy="16.3" r="0.4"/>
	<circle class="st0" cx="21.1" cy="17.5" r="0.4"/>
	<circle class="st0" cx="21.1" cy="18.7" r="0.4"/>
	<circle class="st0" cx="21.1" cy="19.9" r="0.4"/>
	<circle class="st0" cx="21.1" cy="21.1" r="0.4"/>
	<circle class="st0" cx="21.1" cy="22.3" r="0.4"/>
	<circle class="st0" cx="21.1" cy="23.4" r="0.4"/>
	<circle class="st0" cx="21.1" cy="24.6" r="0.4"/>
	<circle class="st0" cx="21.1" cy="25.8" r="0.4"/>
	<circle class="st0" cx="21.1" cy="27" r="0.4"/>
	<circle class="st0" cx="23.2" cy="2.1" r="0.4"/>
	<circle class="st0" cx="23.2" cy="3.3" r="0.4"/>
	<circle class="st0" cx="23.2" cy="4.5" r="0.4"/>
	<circle class="st0" cx="23.2" cy="5.7" r="0.4"/>
	<circle class="st0" cx="23.2" cy="6.9" r="0.4"/>
	<circle class="st0" cx="23.2" cy="8.1" r="0.4"/>
	<circle class="st0" cx="23.2" cy="9.2" r="0.4"/>
	<circle class="st0" cx="23.2" cy="10.4" r="0.4"/>
	<circle class="st0" cx="23.2" cy="11.6" r="0.4"/>
	<circle class="st0" cx="23.2" cy="12.8" r="0.4"/>
	<circle class="st0" cx="23.2" cy="14" r="0.4"/>
	<circle class="st0" cx="23.2" cy="15.2" r="0.4"/>
	<circle class="st0" cx="23.2" cy="16.3" r="0.4"/>
	<circle class="st0" cx="23.2" cy="17.5" r="0.4"/>
	<circle class="st0" cx="23.2" cy="18.7" r="0.4"/>
	<circle class="st0" cx="23.2" cy="19.9" r="0.4"/>
	<circle class="st0" cx="23.2" cy="21.1" r="0.4"/>
	<circle class="st0" cx="23.2" cy="22.3" r="0.4"/>
	<circle class="st0" cx="23.2" cy="25.8" r="0.4"/>
	<circle class="st0" cx="25.2" cy="2.1" r="0.4"/>
	<circle class="st0" cx="25.2" cy="3.3" r="0.4"/>
	<circle class="st0" cx="25.2" cy="4.5" r="0.4"/>
	<circle class="st0" cx="25.2" cy="5.7" r="0.4"/>
	<circle class="st0" cx="25.2" cy="6.9" r="0.4"/>
	<circle class="st0" cx="25.2" cy="8.1" r="0.4"/>
	<circle class="st0" cx="25.2" cy="9.2" r="0.4"/>
	<circle class="st0" cx="25.2" cy="10.4" r="0.4"/>
	<circle class="st0" cx="25.2" cy="11.6" r="0.4"/>
	<circle class="st0" cx="25.2" cy="12.8" r="0.4"/>
	<circle class="st0" cx="25.2" cy="14" r="0.4"/>
	<circle class="st0" cx="25.2" cy="15.2" r="0.4"/>
	<circle class="st0" cx="25.2" cy="16.3" r="0.4"/>
	<circle class="st0" cx="25.2" cy="17.5" r="0.4"/>
	<circle class="st0" cx="25.2" cy="18.7" r="0.4"/>
	<circle class="st0" cx="25.2" cy="19.9" r="0.4"/>
	<circle class="st0" cx="25.2" cy="21.1" r="0.4"/>
	<circle class="st0" cx="25.2" cy="23.4" r="0.4"/>
	<circle class="st0" cx="25.2" cy="24.6" r="0.4"/>
	<circle class="st0" cx="25.2" cy="25.8" r="0.4"/>
	<circle class="st0" cx="27.3" cy="3.3" r="0.4"/>
	<circle class="st0" cx="27.3" cy="4.5" r="0.4"/>
	<circle class="st0" cx="27.3" cy="5.7" r="0.4"/>
	<circle class="st0" cx="27.3" cy="6.9" r="0.4"/>
	<circle class="st0" cx="27.3" cy="8.1" r="0.4"/>
	<circle class="st0" cx="27.3" cy="9.2" r="0.4"/>
	<circle class="st0" cx="27.3" cy="10.4" r="0.4"/>
	<circle class="st0" cx="27.3" cy="11.6" r="0.4"/>
	<circle class="st0" cx="27.3" cy="12.8" r="0.4"/>
	<circle class="st0" cx="27.3" cy="14" r="0.4"/>
	<circle class="st0" cx="27.3" cy="15.2" r="0.4"/>
	<circle class="st0" cx="27.3" cy="16.3" r="0.4"/>
	<circle class="st0" cx="27.3" cy="17.5" r="0.4"/>
	<circle class="st0" cx="27.3" cy="18.7" r="0.4"/>
	<circle class="st0" cx="27.3" cy="24.6" r="0.4"/>
	<circle class="st0" cx="29.3" cy="4.5" r="0.4"/>
	<circle class="st0" cx="29.3" cy="5.7" r="0.4"/>
	<circle class="st0" cx="29.3" cy="6.9" r="0.4"/>
	<circle class="st0" cx="29.3" cy="8.1" r="0.4"/>
	<circle class="st0" cx="29.3" cy="9.2" r="0.4"/>
	<circle class="st0" cx="29.3" cy="10.4" r="0.4"/>
	<circle class="st0" cx="29.3" cy="11.6" r="0.4"/>
	<circle class="st0" cx="29.3" cy="12.8" r="0.4"/>
	<circle class="st0" cx="29.3" cy="14" r="0.4"/>
	<circle class="st0" cx="29.3" cy="15.2" r="0.4"/>
	<circle class="st0" cx="31.3" cy="4.5" r="0.4"/>
	<circle class="st0" cx="31.3" cy="5.7" r="0.4"/>
	<circle class="st0" cx="31.3" cy="6.9" r="0.4"/>
	<circle class="st0" cx="31.3" cy="8.1" r="0.4"/>
	<circle class="st0" cx="31.3" cy="9.2" r="0.4"/>
	<circle class="st0" cx="32.4" cy="6.3" r="0.4"/>
	<circle class="st0" cx="32.4" cy="7.5" r="0.4"/>
	<circle class="st0" cx="32.4" cy="8.6" r="0.4"/>
	<circle class="st0" cx="30.4" cy="3.9" r="0.4"/>
	<circle class="st0" cx="30.4" cy="5.1" r="0.4"/>
	<circle class="st0" cx="30.4" cy="6.3" r="0.4"/>
	<circle class="st0" cx="30.4" cy="7.5" r="0.4"/>
	<circle class="st0" cx="30.4" cy="8.6" r="0.4"/>
	<circle class="st0" cx="30.4" cy="9.8" r="0.4"/>
	<circle class="st0" cx="30.4" cy="11" r="0.4"/>
	<circle class="st0" cx="30.4" cy="12.2" r="0.4"/>
	<circle class="st0" cx="30.4" cy="13.4" r="0.4"/>
	<circle class="st0" cx="28.3" cy="3.9" r="0.4"/>
	<circle class="st0" cx="28.3" cy="5.1" r="0.4"/>
	<circle class="st0" cx="28.3" cy="6.3" r="0.4"/>
	<circle class="st0" cx="28.3" cy="7.5" r="0.4"/>
	<circle class="st0" cx="28.3" cy="8.6" r="0.4"/>
	<circle class="st0" cx="28.3" cy="9.8" r="0.4"/>
	<circle class="st0" cx="28.3" cy="11" r="0.4"/>
	<circle class="st0" cx="28.3" cy="12.2" r="0.4"/>
	<circle class="st0" cx="28.3" cy="13.4" r="0.4"/>
	<circle class="st0" cx="28.3" cy="14.6" r="0.4"/>
	<circle class="st0" cx="28.3" cy="15.7" r="0.4"/>
	<circle class="st0" cx="28.3" cy="16.9" r="0.4"/>
	<circle class="st0" cx="26.3" cy="2.7" r="0.4"/>
	<circle class="st0" cx="26.3" cy="3.9" r="0.4"/>
	<circle class="st0" cx="26.3" cy="5.1" r="0.4"/>
	<circle class="st0" cx="26.3" cy="6.3" r="0.4"/>
	<circle class="st0" cx="26.3" cy="7.5" r="0.4"/>
	<circle class="st0" cx="26.3" cy="8.6" r="0.4"/>
	<circle class="st0" cx="26.3" cy="9.8" r="0.4"/>
	<circle class="st0" cx="26.3" cy="11" r="0.4"/>
	<circle class="st0" cx="26.3" cy="12.2" r="0.4"/>
	<circle class="st0" cx="26.3" cy="13.4" r="0.4"/>
	<circle class="st0" cx="26.3" cy="14.6" r="0.4"/>
	<circle class="st0" cx="26.3" cy="15.7" r="0.4"/>
	<circle class="st0" cx="26.3" cy="16.9" r="0.4"/>
	<circle class="st0" cx="26.3" cy="18.1" r="0.4"/>
	<circle class="st0" cx="26.3" cy="19.3" r="0.4"/>
	<circle class="st0" cx="26.3" cy="20.5" r="0.4"/>
	<circle class="st0" cx="26.3" cy="24" r="0.4"/>
	<circle class="st0" cx="26.3" cy="25.2" r="0.4"/>
	<circle class="st0" cx="24.2" cy="1.5" r="0.4"/>
	<circle class="st0" cx="24.2" cy="2.7" r="0.4"/>
	<circle class="st0" cx="24.2" cy="3.9" r="0.4"/>
	<circle class="st0" cx="24.2" cy="5.1" r="0.4"/>
	<circle class="st0" cx="24.2" cy="6.3" r="0.4"/>
	<circle class="st0" cx="24.2" cy="7.5" r="0.4"/>
	<circle class="st0" cx="24.2" cy="8.6" r="0.4"/>
	<circle class="st0" cx="24.2" cy="9.8" r="0.4"/>
	<circle class="st0" cx="24.2" cy="11" r="0.4"/>
	<circle class="st0" cx="24.2" cy="12.2" r="0.4"/>
	<circle class="st0" cx="24.2" cy="13.4" r="0.4"/>
	<circle class="st0" cx="24.2" cy="14.6" r="0.4"/>
	<circle class="st0" cx="24.2" cy="15.7" r="0.4"/>
	<circle class="st0" cx="24.2" cy="16.9" r="0.4"/>
	<circle class="st0" cx="24.2" cy="18.1" r="0.4"/>
	<circle class="st0" cx="24.2" cy="19.3" r="0.4"/>
	<circle class="st0" cx="24.2" cy="20.5" r="0.4"/>
	<circle class="st0" cx="24.2" cy="21.7" r="0.4"/>
	<circle class="st0" cx="24.2" cy="22.8" r="0.4"/>
	<circle class="st0" cx="24.2" cy="24" r="0.4"/>
	<circle class="st0" cx="24.2" cy="25.2" r="0.4"/>
	<circle class="st0" cx="22.2" cy="1.5" r="0.4"/>
	<circle class="st0" cx="22.2" cy="2.7" r="0.4"/>
	<circle class="st0" cx="22.2" cy="3.9" r="0.4"/>
	<circle class="st0" cx="22.2" cy="5.1" r="0.4"/>
	<circle class="st0" cx="22.2" cy="6.3" r="0.4"/>
	<circle class="st0" cx="22.2" cy="7.5" r="0.4"/>
	<circle class="st0" cx="22.2" cy="8.6" r="0.4"/>
	<circle class="st0" cx="22.2" cy="9.8" r="0.4"/>
	<circle class="st0" cx="22.2" cy="11" r="0.4"/>
	<circle class="st0" cx="22.2" cy="12.2" r="0.4"/>
	<circle class="st0" cx="22.2" cy="13.4" r="0.4"/>
	<circle class="st0" cx="22.2" cy="14.6" r="0.4"/>
	<circle class="st0" cx="22.2" cy="15.7" r="0.4"/>
	<circle class="st0" cx="22.2" cy="16.9" r="0.4"/>
	<circle class="st0" cx="22.2" cy="18.1" r="0.4"/>
	<circle class="st0" cx="22.2" cy="19.3" r="0.4"/>
	<circle class="st0" cx="22.2" cy="20.5" r="0.4"/>
	<circle class="st0" cx="22.2" cy="21.7" r="0.4"/>
	<circle class="st0" cx="22.2" cy="22.8" r="0.4"/>
	<circle class="st0" cx="20.2" cy="1.5" r="0.4"/>
	<circle class="st0" cx="20.2" cy="2.7" r="0.4"/>
	<circle class="st0" cx="20.2" cy="3.9" r="0.4"/>
	<circle class="st0" cx="20.2" cy="5.1" r="0.4"/>
	<circle class="st0" cx="20.2" cy="6.3" r="0.4"/>
	<circle class="st0" cx="20.2" cy="7.5" r="0.4"/>
	<circle class="st0" cx="20.2" cy="8.6" r="0.4"/>
	<circle class="st0" cx="20.2" cy="9.8" r="0.4"/>
	<circle class="st0" cx="20.2" cy="11" r="0.4"/>
	<circle class="st0" cx="20.2" cy="12.2" r="0.4"/>
	<circle class="st0" cx="20.2" cy="13.4" r="0.4"/>
	<circle class="st0" cx="20.2" cy="14.6" r="0.4"/>
	<circle class="st0" cx="20.2" cy="15.7" r="0.4"/>
	<circle class="st0" cx="20.2" cy="16.9" r="0.4"/>
	<circle class="st0" cx="20.2" cy="18.1" r="0.4"/>
	<circle class="st0" cx="20.2" cy="19.3" r="0.4"/>
	<circle class="st0" cx="20.2" cy="20.5" r="0.4"/>
	<circle class="st0" cx="20.2" cy="21.7" r="0.4"/>
	<circle class="st0" cx="20.2" cy="22.8" r="0.4"/>
	<circle class="st0" cx="20.2" cy="24" r="0.4"/>
	<circle class="st0" cx="20.2" cy="25.2" r="0.4"/>
	<circle class="st0" cx="18.1" cy="2.7" r="0.4"/>
	<circle class="st0" cx="18.1" cy="3.9" r="0.4"/>
	<circle class="st0" cx="18.1" cy="5.1" r="0.4"/>
	<circle class="st0" cx="18.1" cy="6.3" r="0.4"/>
	<circle class="st0" cx="18.1" cy="7.5" r="0.4"/>
	<circle class="st0" cx="18.1" cy="8.6" r="0.4"/>
	<circle class="st0" cx="18.1" cy="9.8" r="0.4"/>
	<circle class="st0" cx="18.1" cy="11" r="0.4"/>
	<circle class="st0" cx="18.1" cy="12.2" r="0.4"/>
	<circle class="st0" cx="18.1" cy="13.4" r="0.4"/>
	<circle class="st0" cx="18.1" cy="14.6" r="0.4"/>
	<circle class="st0" cx="18.1" cy="15.7" r="0.4"/>
	<circle class="st0" cx="18.1" cy="16.9" r="0.4"/>
	<circle class="st0" cx="18.1" cy="18.1" r="0.4"/>
	<circle class="st0" cx="18.1" cy="19.3" r="0.4"/>
	<circle class="st0" cx="18.1" cy="20.5" r="0.4"/>
	<circle class="st0" cx="18.1" cy="21.7" r="0.4"/>
	<circle class="st0" cx="18.1" cy="22.8" r="0.4"/>
	<circle class="st0" cx="18.1" cy="24" r="0.4"/>
	<circle class="st0" cx="18.1" cy="25.2" r="0.4"/>
	<circle class="st0" cx="16.1" cy="2.7" r="0.4"/>
	<circle class="st0" cx="16.1" cy="3.9" r="0.4"/>
	<circle class="st0" cx="16.1" cy="5.1" r="0.4"/>
	<circle class="st0" cx="16.1" cy="6.3" r="0.4"/>
	<circle class="st0" cx="16.1" cy="7.5" r="0.4"/>
	<circle class="st0" cx="16.1" cy="8.6" r="0.4"/>
	<circle class="st0" cx="16.1" cy="9.8" r="0.4"/>
	<circle class="st0" cx="16.1" cy="11" r="0.4"/>
	<circle class="st0" cx="16.1" cy="12.2" r="0.4"/>
	<circle class="st0" cx="16.1" cy="13.4" r="0.4"/>
	<circle class="st0" cx="16.1" cy="14.6" r="0.4"/>
	<circle class="st0" cx="16.1" cy="15.7" r="0.4"/>
	<circle class="st0" cx="16.1" cy="16.9" r="0.4"/>
	<circle class="st0" cx="16.1" cy="18.1" r="0.4"/>
	<circle class="st0" cx="16.1" cy="19.3" r="0.4"/>
	<circle class="st0" cx="16.1" cy="20.5" r="0.4"/>
	<circle class="st0" cx="16.1" cy="21.7" r="0.4"/>
	<circle class="st0" cx="16.1" cy="22.8" r="0.4"/>
	<circle class="st0" cx="16.1" cy="24" r="0.4"/>
	<circle class="st0" cx="16.1" cy="25.2" r="0.4"/>
	<circle class="st0" cx="14" cy="5.1" r="0.4"/>
	<circle class="st0" cx="14" cy="6.3" r="0.4"/>
	<circle class="st0" cx="14" cy="7.5" r="0.4"/>
	<circle class="st0" cx="14" cy="8.6" r="0.4"/>
	<circle class="st0" cx="14" cy="9.8" r="0.4"/>
	<circle class="st0" cx="14" cy="11" r="0.4"/>
	<circle class="st0" cx="14" cy="12.2" r="0.4"/>
	<circle class="st0" cx="14" cy="13.4" r="0.4"/>
	<circle class="st0" cx="14" cy="14.6" r="0.4"/>
	<circle class="st0" cx="14" cy="15.7" r="0.4"/>
	<circle class="st0" cx="14" cy="16.9" r="0.4"/>
	<circle class="st0" cx="14" cy="18.1" r="0.4"/>
	<circle class="st0" cx="14" cy="19.3" r="0.4"/>
	<circle class="st0" cx="14" cy="20.5" r="0.4"/>
	<circle class="st0" cx="14" cy="21.7" r="0.4"/>
	<circle class="st0" cx="14" cy="22.8" r="0.4"/>
	<circle class="st0" cx="14" cy="24" r="0.4"/>
	<circle class="st0" cx="14" cy="25.2" r="0.4"/>
	<circle class="st0" cx="12" cy="6.3" r="0.4"/>
	<circle class="st0" cx="12" cy="7.5" r="0.4"/>
	<circle class="st0" cx="12" cy="8.6" r="0.4"/>
	<circle class="st0" cx="12" cy="9.8" r="0.4"/>
	<circle class="st0" cx="12" cy="11" r="0.4"/>
	<circle class="st0" cx="12" cy="12.2" r="0.4"/>
	<circle class="st0" cx="12" cy="13.4" r="0.4"/>
	<circle class="st0" cx="12" cy="14.6" r="0.4"/>
	<circle class="st0" cx="12" cy="15.7" r="0.4"/>
	<circle class="st0" cx="12" cy="16.9" r="0.4"/>
	<circle class="st0" cx="12" cy="18.1" r="0.4"/>
	<circle class="st0" cx="12" cy="19.3" r="0.4"/>
	<circle class="st0" cx="12" cy="20.5" r="0.4"/>
	<circle class="st0" cx="12" cy="21.7" r="0.4"/>
	<circle class="st0" cx="12" cy="22.8" r="0.4"/>
	<circle class="st0" cx="12" cy="24" r="0.4"/>
	<circle class="st0" cx="10" cy="8.6" r="0.4"/>
	<circle class="st0" cx="10" cy="9.8" r="0.4"/>
	<circle class="st0" cx="10" cy="11" r="0.4"/>
	<circle class="st0" cx="10" cy="12.2" r="0.4"/>
	<circle class="st0" cx="10" cy="13.4" r="0.4"/>
	<circle class="st0" cx="10" cy="16.9" r="0.4"/>
	<circle class="st0" cx="10" cy="18.1" r="0.4"/>
	<circle class="st0" cx="10" cy="19.3" r="0.4"/>
	<circle class="st0" cx="10" cy="20.5" r="0.4"/>
	<circle class="st0" cx="10" cy="21.7" r="0.4"/>
	<circle class="st0" cx="10" cy="22.8" r="0.4"/>
	<circle class="st0" cx="10" cy="24" r="0.4"/>
	<circle class="st0" cx="10" cy="25.2" r="0.4"/>
	<circle class="st0" cx="7.9" cy="20.5" r="0.4"/>
	<circle class="st0" cx="7.9" cy="21.7" r="0.4"/>
	<circle class="st0" cx="7.9" cy="22.8" r="0.4"/>
	<circle class="st0" cx="7.9" cy="24" r="0.4"/>
	<circle class="st0" cx="7.9" cy="25.2" r="0.4"/>
	<circle class="st0" cx="5.9" cy="20.5" r="0.4"/>
	<circle class="st0" cx="5.9" cy="21.7" r="0.4"/>
	<circle class="st0" cx="5.9" cy="22.8" r="0.4"/>
	<circle class="st0" cx="5.9" cy="24" r="0.4"/>
	<circle class="st0" cx="3.8" cy="20.5" r="0.4"/>
	<circle class="st0" cx="3.8" cy="21.7" r="0.4"/>
	<circle class="st0" cx="3.8" cy="22.8" r="0.4"/>
	<circle class="st0" cx="1.8" cy="20.5" r="0.4"/>
	<circle class="st0" cx="1.8" cy="21.7" r="0.4"/>
	<circle class="st0" cx="19.1" cy="2.1" r="0.4"/>
	<circle class="st0" cx="19.1" cy="3.3" r="0.4"/>
	<circle class="st0" cx="19.1" cy="4.5" r="0.4"/>
	<circle class="st0" cx="19.1" cy="5.7" r="0.4"/>
	<circle class="st0" cx="19.1" cy="6.9" r="0.4"/>
	<circle class="st0" cx="19.1" cy="8.1" r="0.4"/>
	<circle class="st0" cx="19.1" cy="9.2" r="0.4"/>
	<circle class="st0" cx="19.1" cy="10.4" r="0.4"/>
	<circle class="st0" cx="19.1" cy="11.6" r="0.4"/>
	<circle class="st0" cx="19.1" cy="12.8" r="0.4"/>
	<circle class="st0" cx="19.1" cy="14" r="0.4"/>
	<circle class="st0" cx="19.1" cy="15.2" r="0.4"/>
	<circle class="st0" cx="19.1" cy="16.3" r="0.4"/>
	<circle class="st0" cx="19.1" cy="17.5" r="0.4"/>
	<circle class="st0" cx="19.1" cy="18.7" r="0.4"/>
	<circle class="st0" cx="19.1" cy="19.9" r="0.4"/>
	<circle class="st0" cx="19.1" cy="21.1" r="0.4"/>
	<circle class="st0" cx="19.1" cy="22.3" r="0.4"/>
	<circle class="st0" cx="19.1" cy="23.4" r="0.4"/>
	<circle class="st0" cx="19.1" cy="24.6" r="0.4"/>
	<circle class="st0" cx="19.1" cy="25.8" r="0.4"/>
	<circle class="st0" cx="17.1" cy="2.1" r="0.4"/>
	<circle class="st0" cx="17.1" cy="3.3" r="0.4"/>
	<circle class="st0" cx="17.1" cy="4.5" r="0.4"/>
	<circle class="st0" cx="17.1" cy="5.7" r="0.4"/>
	<circle class="st0" cx="17.1" cy="6.9" r="0.4"/>
	<circle class="st0" cx="17.1" cy="8.1" r="0.4"/>
	<circle class="st0" cx="17.1" cy="9.2" r="0.4"/>
	<circle class="st0" cx="17.1" cy="10.4" r="0.4"/>
	<circle class="st0" cx="17.1" cy="11.6" r="0.4"/>
	<circle class="st0" cx="17.1" cy="12.8" r="0.4"/>
	<circle class="st0" cx="17.1" cy="14" r="0.4"/>
	<circle class="st0" cx="17.1" cy="15.2" r="0.4"/>
	<circle class="st0" cx="17.1" cy="16.3" r="0.4"/>
	<circle class="st0" cx="17.1" cy="17.5" r="0.4"/>
	<circle class="st0" cx="17.1" cy="18.7" r="0.4"/>
	<circle class="st0" cx="17.1" cy="19.9" r="0.4"/>
	<circle class="st0" cx="17.1" cy="21.1" r="0.4"/>
	<circle class="st0" cx="17.1" cy="22.3" r="0.4"/>
	<circle class="st0" cx="17.1" cy="23.4" r="0.4"/>
	<circle class="st0" cx="17.1" cy="24.6" r="0.4"/>
	<circle class="st0" cx="17.1" cy="25.8" r="0.4"/>
	<circle class="st0" cx="15" cy="4.5" r="0.4"/>
	<circle class="st0" cx="15" cy="5.7" r="0.4"/>
	<circle class="st0" cx="15" cy="6.9" r="0.4"/>
	<circle class="st0" cx="15" cy="8.1" r="0.4"/>
	<circle class="st0" cx="15" cy="9.2" r="0.4"/>
	<circle class="st0" cx="15" cy="10.4" r="0.4"/>
	<circle class="st0" cx="15" cy="11.6" r="0.4"/>
	<circle class="st0" cx="15" cy="12.8" r="0.4"/>
	<circle class="st0" cx="15" cy="14" r="0.4"/>
	<circle class="st0" cx="15" cy="15.2" r="0.4"/>
	<circle class="st0" cx="15" cy="16.3" r="0.4"/>
	<circle class="st0" cx="15" cy="17.5" r="0.4"/>
	<circle class="st0" cx="15" cy="18.7" r="0.4"/>
	<circle class="st0" cx="15" cy="19.9" r="0.4"/>
	<circle class="st0" cx="15" cy="21.1" r="0.4"/>
	<circle class="st0" cx="15" cy="22.3" r="0.4"/>
	<circle class="st0" cx="15" cy="23.4" r="0.4"/>
	<circle class="st0" cx="15" cy="24.6" r="0.4"/>
	<circle class="st0" cx="15" cy="25.8" r="0.4"/>
	<circle class="st0" cx="13" cy="5.7" r="0.4"/>
	<circle class="st0" cx="13" cy="6.9" r="0.4"/>
	<circle class="st0" cx="13" cy="8.1" r="0.4"/>
	<circle class="st0" cx="13" cy="9.2" r="0.4"/>
	<circle class="st0" cx="13" cy="10.4" r="0.4"/>
	<circle class="st0" cx="13" cy="11.6" r="0.4"/>
	<circle class="st0" cx="13" cy="12.8" r="0.4"/>
	<circle class="st0" cx="13" cy="14" r="0.4"/>
	<circle class="st0" cx="13" cy="15.2" r="0.4"/>
	<circle class="st0" cx="13" cy="16.3" r="0.4"/>
	<circle class="st0" cx="13" cy="17.5" r="0.4"/>
	<circle class="st0" cx="13" cy="18.7" r="0.4"/>
	<circle class="st0" cx="13" cy="19.9" r="0.4"/>
	<circle class="st0" cx="13" cy="21.1" r="0.4"/>
	<circle class="st0" cx="13" cy="22.3" r="0.4"/>
	<circle class="st0" cx="13" cy="23.4" r="0.4"/>
	<circle class="st0" cx="13" cy="24.6" r="0.4"/>
	<circle class="st0" cx="10.9" cy="8.1" r="0.4"/>
	<circle class="st0" cx="10.9" cy="9.2" r="0.4"/>
	<circle class="st0" cx="10.9" cy="10.4" r="0.4"/>
	<circle class="st0" cx="10.9" cy="11.6" r="0.4"/>
	<circle class="st0" cx="10.9" cy="12.8" r="0.4"/>
	<circle class="st0" cx="10.9" cy="14" r="0.4"/>
	<circle class="st0" cx="10.9" cy="15.2" r="0.4"/>
	<circle class="st0" cx="10.9" cy="16.3" r="0.4"/>
	<circle class="st0" cx="10.9" cy="17.5" r="0.4"/>
	<circle class="st0" cx="10.9" cy="18.7" r="0.4"/>
	<circle class="st0" cx="10.9" cy="19.9" r="0.4"/>
	<circle class="st0" cx="10.9" cy="21.1" r="0.4"/>
	<circle class="st0" cx="10.9" cy="22.3" r="0.4"/>
	<circle class="st0" cx="10.9" cy="23.4" r="0.4"/>
	<circle class="st0" cx="10.9" cy="24.6" r="0.4"/>
	<circle class="st0" cx="8.9" cy="9.2" r="0.4"/>
	<circle class="st0" cx="8.9" cy="10.4" r="0.4"/>
	<circle class="st0" cx="8.9" cy="21.1" r="0.4"/>
	<circle class="st0" cx="8.9" cy="22.3" r="0.4"/>
	<circle class="st0" cx="8.9" cy="23.4" r="0.4"/>
	<circle class="st0" cx="6.9" cy="19.9" r="0.4"/>
	<circle class="st0" cx="6.9" cy="21.1" r="0.4"/>
	<circle class="st0" cx="6.9" cy="22.3" r="0.4"/>
	<circle class="st0" cx="6.9" cy="23.4" r="0.4"/>
	<circle class="st0" cx="6.9" cy="24.6" r="0.4"/>
	<circle class="st0" cx="4.8" cy="19.9" r="0.4"/>
	<circle class="st0" cx="4.8" cy="21.1" r="0.4"/>
	<circle class="st0" cx="4.8" cy="22.3" r="0.4"/>
	<circle class="st0" cx="4.8" cy="23.4" r="0.4"/>
	<circle class="st0" cx="2.8" cy="19.9" r="0.4"/>
	<circle class="st0" cx="2.8" cy="21.1" r="0.4"/>
	<circle class="st0" cx="2.8" cy="22.3" r="0.4"/>
</g>
<g>
	<path d="M36.5,12.6V3.5h0.9v9.2H36.5z"/>
	<path d="M39.3,12.6V3.5h1l4.6,7.7V3.5h0.9v9.2h-1l-4.6-7.7v7.7H39.3z"/>
	<path d="M49.7,12.6l-3.2-9.2h1l2.6,7.8l2.7-7.8h1l-3.2,9.2H49.7z"/>
	<path d="M54.6,12.6V3.5h5.1v0.8h-4.2v3.4h4.2v0.8h-4.2v3.3h4.2v0.8H54.6z"/>
	<path d="M63.8,12.8c-1,0-1.8-0.3-2.4-0.8s-0.9-1.3-0.9-2.2h0.9c0,0.7,0.2,1.2,0.6,1.6c0.4,0.4,1,0.6,1.7,0.6c0.7,0,1.2-0.2,1.5-0.5
		c0.4-0.3,0.6-0.7,0.6-1.3c0-0.9-0.5-1.5-1.6-1.8l-1.5-0.5c-1.3-0.4-2-1.2-2-2.4c0-0.7,0.3-1.3,0.8-1.8s1.2-0.7,2.1-0.7
		c0.9,0,1.6,0.2,2.1,0.7c0.5,0.5,0.8,1.2,0.8,2h-0.9c0-0.6-0.2-1.1-0.5-1.5C64.8,4.2,64.3,4,63.6,4c-0.6,0-1.1,0.1-1.4,0.4
		c-0.4,0.3-0.5,0.7-0.5,1.2c0,0.4,0.1,0.8,0.4,1.1c0.3,0.3,0.7,0.5,1.3,0.7l1.5,0.4c1.2,0.3,1.9,1.2,1.9,2.4c0,0.8-0.3,1.4-0.8,1.9
		S64.7,12.8,63.8,12.8z"/>
	<path d="M69.5,12.6V4.3h-2.8V3.5h6.5v0.8h-2.8v8.3H69.5z"/>
	<path d="M74.1,12.6V3.5h5.1v0.8H75v3.4h4.2v0.8H75v3.3h4.2v0.8H74.1z"/>
	<path d="M87.2,6.6c0,0.7-0.2,1.4-0.6,1.9c-0.4,0.5-0.9,0.9-1.5,1.1l1.9,3.1h-1l-1.8-2.9h-0.1h-2.3v2.9H81V3.5h3.2
		c0.9,0,1.6,0.3,2.2,0.9C86.9,4.9,87.2,5.7,87.2,6.6z M81.8,4.3v4.6h2.3c0.6,0,1.1-0.2,1.6-0.7c0.4-0.4,0.6-1,0.6-1.7
		s-0.2-1.2-0.6-1.7c-0.4-0.4-0.9-0.7-1.6-0.7H81.8z"/>
	<path d="M88.6,12.6V3.5h5.1v0.8h-4.2v3.4h4.2v0.8h-4.2v3.3h4.2v0.8H88.6z"/>
	<path d="M95.4,12.6V3.5h1l4.6,7.7V3.5h0.9v9.2h-1l-4.6-7.7v7.7H95.4z"/>
	<path d="M107.7,5.2c-0.1,0.1-0.3,0.2-0.6,0.2c-0.2,0-0.4-0.1-0.6-0.2s-0.2-0.3-0.2-0.6c0-0.2,0.1-0.4,0.2-0.6s0.3-0.2,0.6-0.2
		c0.2,0,0.4,0.1,0.6,0.2s0.2,0.3,0.2,0.6C107.9,4.9,107.8,5.1,107.7,5.2z M106.7,12.6v-6h0.9v6H106.7z"/>
	<path d="M109.3,12.6v-6h0.9V8c0.1-0.5,0.4-0.8,0.8-1.1c0.4-0.3,0.9-0.4,1.4-0.4c0.8,0,1.3,0.2,1.7,0.6s0.6,1.1,0.6,1.9v3.6h-0.8
		V9.4c0-1.4-0.6-2.1-1.7-2.1c-0.6,0-1.1,0.2-1.5,0.6c-0.3,0.4-0.5,1-0.5,1.7v3H109.3z"/>
</g>
<g>
	<path class="st0" d="M36.8,25.3V15.1h1.7v8.7h4.1v1.6H36.8z"/>
	<path class="st0" d="M56.1,24c-1,1-2.2,1.5-3.9,1.5c-1.6,0-2.9-0.5-3.9-1.5c-1-1-1.4-2.3-1.4-3.8c0-1.5,0.5-2.8,1.4-3.8
		c1-1,2.2-1.5,3.9-1.5c1.6,0,2.9,0.5,3.9,1.5c1,1,1.4,2.3,1.4,3.8C57.6,21.7,57.1,23,56.1,24z M49.7,23c0.6,0.7,1.5,1.1,2.6,1.1
		s2-0.4,2.6-1.1c0.6-0.7,0.9-1.7,0.9-2.8c0-1.1-0.3-2-0.9-2.8c-0.6-0.7-1.5-1.1-2.6-1.1s-2,0.4-2.6,1.1c-0.6,0.7-0.9,1.7-0.9,2.8
		C48.7,21.3,49,22.2,49.7,23z"/>
	<path class="st0" d="M63.1,25.3V15.1h1.6l3.3,7.8l3.3-7.8h1.6v10.2h-1.6v-6.8l-2.6,6.8h-1.3l-2.6-6.8v6.8H63.1z"/>
	<path class="st0" d="M83.8,20c0.6,0.1,1.1,0.3,1.5,0.7s0.6,1,0.6,1.7c0,0.9-0.3,1.6-0.9,2.1c-0.6,0.5-1.4,0.8-2.4,0.8h-3.6V15.1
		h3.4c1,0,1.8,0.2,2.4,0.7c0.6,0.5,0.9,1.1,0.9,2C85.8,19,85.1,19.8,83.8,20z M82.4,16.6h-1.7v2.8h1.7c0.5,0,0.9-0.1,1.2-0.4
		c0.3-0.2,0.4-0.6,0.4-1c0-0.4-0.1-0.8-0.4-1C83.4,16.7,82.9,16.6,82.4,16.6z M82.6,23.8c0.5,0,0.9-0.1,1.2-0.4
		c0.3-0.3,0.4-0.7,0.4-1.1c0-0.4-0.1-0.8-0.4-1c-0.3-0.3-0.7-0.4-1.2-0.4h-1.9v3H82.6z"/>
	<path class="st0" d="M100,24c-1,1-2.2,1.5-3.9,1.5c-1.6,0-2.9-0.5-3.9-1.5s-1.4-2.3-1.4-3.8c0-1.5,0.5-2.8,1.4-3.8
		c1-1,2.2-1.5,3.9-1.5c1.6,0,2.9,0.5,3.9,1.5c1,1,1.4,2.3,1.4,3.8C101.4,21.7,101,23,100,24z M93.5,23c0.6,0.7,1.5,1.1,2.6,1.1
		c1.1,0,2-0.4,2.6-1.1c0.6-0.7,0.9-1.7,0.9-2.8c0-1.1-0.3-2-0.9-2.8c-0.6-0.7-1.5-1.1-2.6-1.1c-1.1,0-2,0.4-2.6,1.1
		c-0.6,0.7-0.9,1.7-0.9,2.8C92.6,21.3,92.9,22.2,93.5,23z"/>
	<path class="st0" d="M114.6,15.1l-4.4,5l4.4,5.2h-2.1l-3.8-4.6v4.6H107V15.1h1.7v4.6l3.8-4.6H114.6z"/>
</g>
</svg>
